<?xml version="1.0" standalone="no"?>
<!DOCTYPE svg PUBLIC "-//W3C//DTD SVG 20010904//EN"
 "http://www.w3.org/TR/2001/REC-SVG-20010904/DTD/svg10.dtd">
<svg version="1.0" xmlns="http://www.w3.org/2000/svg"
 width="478.000000pt" height="579.000000pt" viewBox="0 0 478.000000 579.000000"
 preserveAspectRatio="xMidYMid meet">

<g transform="translate(0.000000,579.000000) scale(0.100000,-0.100000)"
fill="#000000" stroke="none">
<path d="M1965 5630 c-3 -5 -33 -10 -67 -10 -46 0 -67 -5 -91 -22 -43 -30 -85
-75 -92 -99 -4 -10 -11 -19 -16 -19 -5 0 -9 -7 -9 -15 0 -8 -3 -15 -8 -15 -4
0 -12 -10 -17 -22 -6 -12 -19 -26 -30 -32 -11 -6 -27 -18 -35 -27 -8 -9 -27
-23 -41 -33 -15 -9 -40 -36 -55 -59 -41 -62 -65 -87 -84 -87 -21 0 -100 -76
-100 -96 0 -8 -4 -14 -10 -14 -5 0 -10 -11 -10 -24 0 -14 -4 -28 -10 -31 -5
-3 -10 -15 -10 -25 0 -13 -8 -20 -27 -22 -25 -3 -35 -17 -82 -111 -54 -105
-55 -109 -45 -157 9 -45 8 -51 -11 -67 -23 -20 -51 -95 -41 -111 9 -14 63 -25
78 -16 9 6 5 10 -12 14 -37 9 -35 32 6 73 l37 37 -16 49 c-17 53 -14 79 15
126 10 17 18 38 18 48 0 9 5 17 10 17 6 0 10 7 10 15 0 8 12 22 28 32 37 24
45 33 61 68 7 17 17 38 22 47 5 10 9 24 9 31 0 18 37 51 85 75 41 21 62 41
105 102 30 44 37 50 80 80 44 30 95 84 112 119 54 110 115 151 223 151 41 0
77 5 80 10 4 6 112 10 291 10 183 0 284 -4 284 -10 0 -5 7 -10 15 -10 28 0 64
-47 85 -111 24 -70 44 -321 38 -479 l-3 -85 -77 -3 c-49 -2 -78 1 -78 8 0 5
-4 10 -10 10 -5 0 -10 -6 -10 -14 0 -12 -21 -27 -38 -26 -4 0 -15 7 -25 14
-16 13 -17 20 -6 82 11 65 11 68 -11 86 -12 10 -30 18 -40 18 -10 0 -23 13
-30 30 -13 32 -40 60 -40 41 0 -26 33 -91 47 -91 26 0 46 -31 48 -73 3 -75 5
-85 21 -101 14 -15 13 -17 -15 -22 -17 -4 -31 -10 -31 -14 0 -5 -17 -18 -37
-30 -32 -19 -55 -23 -148 -25 -116 -2 -161 -13 -172 -42 -10 -26 -50 -63 -68
-63 -8 0 -15 -9 -15 -20 0 -27 -12 -25 -38 5 -12 14 -27 25 -33 25 -7 0 -2 -8
9 -19 26 -22 28 -37 5 -59 -12 -12 -18 -13 -21 -4 -2 6 -10 12 -18 12 -29 0
-95 50 -107 81 -4 10 -6 10 -6 1 -1 -17 28 -75 43 -85 6 -4 -2 -5 -18 -1 -19
5 -31 2 -37 -7 -13 -21 -11 -29 9 -29 9 0 26 -7 37 -16 16 -12 17 -17 7 -23
-20 -12 9 -21 64 -21 l44 0 0 -169 c0 -103 4 -172 10 -176 6 -3 10 -26 10 -50
0 -24 4 -46 8 -49 4 -2 9 -24 11 -47 1 -23 6 -50 11 -60 6 -10 10 -34 10 -53
0 -20 4 -36 9 -36 19 0 31 -200 17 -275 -8 -42 -46 -128 -58 -133 -5 -2 -8 -8
-8 -13 0 -5 -13 -23 -30 -41 -16 -17 -30 -37 -30 -44 0 -8 -3 -14 -8 -14 -4 0
-18 -18 -32 -40 -14 -22 -28 -40 -32 -40 -5 0 -8 -5 -8 -10 0 -6 -21 -43 -47
-83 -50 -76 -124 -155 -173 -184 -17 -9 -30 -21 -30 -25 0 -4 -4 -8 -10 -8 -5
0 -10 9 -10 20 0 11 5 20 10 20 6 0 10 13 10 29 0 16 5 31 11 33 6 2 9 13 6
23 -5 19 -5 19 -12 -2 -4 -13 -11 -23 -16 -23 -5 0 -9 -9 -9 -20 0 -11 -4 -20
-10 -20 -5 0 -10 -7 -10 -15 0 -9 -9 -35 -20 -57 -11 -23 -20 -46 -20 -52 0
-5 -20 -29 -45 -53 -25 -23 -45 -51 -45 -60 0 -10 -9 -43 -20 -73 -11 -30 -20
-65 -20 -77 0 -13 -4 -23 -10 -23 -5 0 -10 -16 -10 -35 0 -19 -4 -35 -10 -35
-5 0 -10 -13 -10 -30 0 -16 -4 -30 -10 -30 -5 0 -10 -11 -10 -24 0 -14 -5 -28
-10 -31 -13 -8 -13 -45 0 -45 6 0 10 9 10 20 0 11 5 20 10 20 6 0 10 9 10 19
0 11 5 23 10 26 5 3 10 15 10 26 0 10 4 19 8 19 5 0 15 16 22 35 8 20 20 41
28 48 22 18 83 37 120 37 17 0 32 5 32 10 0 6 9 10 20 10 26 0 25 8 -2 32
l-22 19 27 24 c24 23 34 25 121 25 52 0 98 4 101 10 4 6 69 10 161 10 101 0
153 3 149 10 -4 6 -91 10 -229 10 l-223 0 -23 25 c-13 14 -18 25 -12 25 7 0
12 7 12 15 0 8 5 15 10 15 6 0 10 7 10 15 0 8 5 15 10 15 6 0 10 6 10 13 0 26
151 187 175 187 7 0 15 3 17 8 3 7 105 72 114 72 2 0 27 11 56 25 28 14 61 25
72 25 12 0 28 5 36 10 11 7 6 10 -20 10 -37 0 -83 20 -47 20 9 0 17 5 17 10 0
6 7 10 15 10 8 0 15 3 15 8 0 30 162 46 174 17 3 -8 3 -22 0 -30 -5 -11 1 -15
19 -15 14 0 29 5 32 10 3 6 15 10 26 10 10 0 19 -4 19 -10 0 -5 5 -10 10 -10
11 0 146 -86 168 -107 7 -7 17 -13 21 -13 4 0 21 -11 37 -25 16 -14 33 -25 38
-25 5 0 16 -8 25 -18 9 -9 28 -23 44 -31 15 -8 27 -18 27 -23 0 -4 5 -8 10 -8
6 0 34 -24 64 -52 29 -29 68 -67 87 -84 19 -17 50 -50 68 -74 19 -23 41 -48
48 -56 19 -19 5 -44 -26 -44 -15 0 -32 -5 -38 -11 -17 -17 -154 -3 -208 21
-11 5 -31 11 -45 13 -25 4 -25 4 -2 12 12 4 22 11 22 15 0 13 -25 19 -115 26
-84 7 -186 -7 -210 -28 -5 -4 -17 -8 -27 -8 -10 0 -27 -5 -38 -10 -11 -5 -29
-14 -40 -20 -11 -6 -29 -10 -40 -10 -11 0 -20 -4 -20 -10 0 -5 -9 -10 -20 -10
-11 0 -20 -4 -20 -10 0 -5 -11 -10 -25 -10 -14 0 -25 -4 -25 -10 0 -5 13 -10
29 -10 17 0 33 5 36 10 3 6 15 10 26 10 10 0 19 5 19 10 0 6 14 10 30 10 17 0
30 5 30 10 0 6 9 10 20 10 11 0 20 5 20 10 0 6 11 10 25 10 14 0 25 5 25 10 0
11 53 14 63 4 12 -12 -6 -34 -28 -34 -13 0 -27 -4 -30 -10 -3 -5 -15 -10 -26
-10 -20 0 -49 -21 -49 -36 0 -5 5 -3 12 4 7 7 36 12 65 12 31 0 53 4 53 11 0
7 33 9 103 5 151 -8 227 -17 227 -27 0 -5 7 -9 16 -9 15 0 124 -53 149 -73 6
-4 36 -24 67 -44 48 -31 63 -48 88 -99 16 -35 30 -70 30 -78 0 -9 5 -16 10
-16 6 0 10 -9 10 -20 0 -11 5 -20 10 -20 6 0 10 -15 10 -34 0 -19 5 -38 10
-41 6 -3 10 -35 10 -71 0 -35 4 -64 9 -64 5 0 11 -9 14 -20 3 -11 12 -20 21
-20 9 0 16 -5 16 -12 0 -6 3 -8 7 -5 22 23 41 263 23 296 -6 12 -11 74 -11
143 0 68 -4 127 -9 133 -4 5 -10 33 -13 60 -9 81 -19 125 -28 131 -5 3 -9 16
-9 30 0 13 -4 24 -10 24 -5 0 -10 11 -10 25 0 14 -4 34 -10 45 -5 11 -14 29
-20 40 -5 11 -10 28 -10 39 0 11 -4 21 -8 23 -5 2 -12 16 -16 31 l-7 29 26
-26 c14 -14 25 -31 25 -38 0 -8 9 -20 20 -28 11 -8 20 -20 20 -27 0 -7 5 -13
10 -13 6 0 10 7 10 15 0 8 -4 15 -10 15 -5 0 -10 9 -10 20 0 11 -4 20 -8 20
-5 0 -15 12 -23 28 -8 15 -22 34 -31 43 -10 9 -18 21 -18 26 0 5 -8 18 -17 29
-10 11 -39 44 -65 74 -82 97 -95 110 -106 110 -6 0 -13 6 -15 13 -4 8 -6 7 -6
-3 0 -8 8 -26 19 -40 11 -14 20 -30 20 -37 0 -6 3 -13 8 -15 7 -3 24 -32 109
-196 29 -56 53 -109 53 -117 0 -8 5 -15 10 -15 6 0 10 -9 10 -19 0 -11 5 -23
10 -26 6 -3 10 -19 10 -36 0 -16 5 -29 10 -29 6 0 10 -13 10 -29 0 -17 4 -32
9 -35 8 -6 15 -36 27 -121 4 -22 10 -44 15 -49 5 -6 9 -61 9 -123 0 -69 4
-113 10 -113 12 0 12 -120 0 -165 -7 -27 -8 -25 -9 18 0 26 -5 47 -10 47 -5 0
-12 16 -15 35 -3 19 -9 51 -12 70 -3 19 -10 38 -15 41 -5 3 -9 23 -9 44 0 21
-4 42 -10 45 -5 3 -10 19 -10 35 0 16 -4 32 -10 35 -5 3 -10 15 -10 26 0 10
-4 19 -10 19 -5 0 -10 9 -10 20 0 11 -4 20 -10 20 -5 0 -10 9 -10 20 0 11 -4
20 -9 20 -5 0 -14 14 -21 30 -7 17 -16 30 -21 30 -4 0 -11 10 -15 22 -9 29
-230 248 -250 248 -3 0 -19 14 -34 30 -15 17 -31 30 -35 30 -4 0 -15 8 -24 18
-9 10 -51 42 -94 72 -43 30 -88 63 -100 73 -12 10 -34 26 -49 35 -16 9 -28 20
-28 24 0 4 -7 8 -15 8 -8 0 -15 5 -15 10 0 6 -7 10 -15 10 -8 0 -15 5 -15 10
0 6 -6 10 -14 10 -8 0 -16 3 -18 8 -4 9 -57 41 -80 49 -10 3 -18 9 -18 14 0 5
-9 9 -19 9 -11 0 -22 6 -24 13 -4 8 -8 9 -14 1 -4 -6 -23 -17 -40 -25 -18 -8
-33 -17 -33 -21 0 -5 -9 -8 -20 -8 -11 0 -20 -4 -20 -10 0 -5 -7 -10 -15 -10
-8 0 -15 -4 -15 -8 0 -5 -16 -14 -35 -22 -19 -8 -35 -17 -35 -22 0 -4 -9 -8
-20 -8 -11 0 -20 -4 -20 -10 0 -5 -9 -10 -20 -10 -11 0 -20 -4 -20 -10 0 -5
-4 -10 -10 -10 -31 0 6 47 144 186 85 85 159 154 165 154 6 0 26 16 45 35 20
19 40 35 46 35 17 0 350 337 350 354 0 9 4 16 9 16 9 0 85 167 96 213 4 15 11
30 16 33 5 3 9 18 9 35 0 16 5 29 10 29 6 0 10 15 10 34 0 19 5 38 10 41 6 3
10 19 10 36 0 16 5 29 10 29 6 0 10 20 10 44 0 25 5 48 10 51 12 7 14 75 2 75
-5 0 -15 -22 -22 -50 -7 -27 -17 -50 -22 -50 -4 0 -8 -7 -8 -15 0 -8 -4 -23
-9 -33 -5 -9 -32 -64 -60 -122 -68 -142 -134 -252 -183 -304 -10 -11 -18 -24
-18 -29 0 -10 -223 -227 -248 -241 -9 -5 -51 -45 -94 -88 -42 -43 -80 -78 -83
-78 -16 0 -31 30 -42 83 l-12 58 47 47 c76 76 122 132 122 147 0 8 5 15 10 15
6 0 10 -9 10 -20 0 -11 -4 -20 -10 -20 -5 0 -10 -6 -10 -13 0 -7 -9 -23 -20
-35 -22 -23 -26 -42 -10 -42 6 0 10 4 10 8 0 7 54 64 140 147 51 48 112 150
108 178 -3 18 -7 15 -30 -19 -28 -42 -60 -83 -95 -122 -18 -20 -23 -21 -23 -8
0 9 5 25 10 36 6 11 15 29 20 40 6 11 10 28 10 38 0 10 4 22 9 27 34 38 77
337 65 458 -10 104 -21 61 -28 -113 -7 -172 -16 -221 -57 -302 -5 -10 -9 -25
-9 -33 0 -8 -4 -15 -10 -15 -5 0 -10 -9 -10 -19 0 -11 -3 -21 -7 -23 -5 -1
-19 -25 -33 -53 -13 -27 -33 -57 -42 -66 -10 -9 -18 -22 -18 -28 0 -15 -90
-105 -97 -97 -3 3 2 12 11 21 9 9 16 20 16 25 0 5 6 15 13 22 19 21 37 56 37
73 0 8 5 15 10 15 6 0 10 11 10 24 0 14 5 28 10 31 6 3 10 17 10 31 0 13 5 24
10 24 6 0 10 14 10 30 0 17 5 30 10 30 6 0 10 18 10 40 0 22 4 40 9 40 20 0
41 314 22 333 -8 8 -11 -13 -11 -75 0 -48 -4 -90 -10 -93 -5 -3 -10 -37 -10
-76 0 -39 -4 -69 -10 -69 -5 0 -10 -18 -10 -40 0 -22 -4 -40 -10 -40 -5 0 -10
-13 -10 -30 0 -16 -4 -30 -10 -30 -5 0 -10 -11 -10 -25 0 -14 -4 -25 -10 -25
-5 0 -10 -6 -10 -14 0 -17 -42 -100 -52 -104 -5 -2 -8 -8 -8 -13 0 -5 -19 -37
-42 -71 -42 -61 -42 -61 -49 -34 -4 16 -11 52 -15 82 -3 30 -10 54 -15 54 -5
0 -9 26 -9 58 0 32 -5 63 -11 69 -17 17 -18 365 -1 370 6 3 12 11 12 19 0 24
35 86 67 120 17 17 33 43 37 57 5 22 12 27 36 27 16 0 31 4 35 9 3 6 18 6 38
-1 52 -16 180 -11 190 8 22 39 47 54 92 54 47 0 85 -27 85 -61 0 -10 5 -21 10
-24 6 -3 10 -42 10 -86 0 -72 2 -79 20 -79 18 0 20 7 20 74 0 41 -4 78 -10 81
-5 3 -10 17 -10 31 0 25 -18 64 -34 76 -16 11 42 21 86 15 23 -3 50 -15 61
-26 31 -31 57 -110 57 -173 0 -32 4 -58 10 -58 6 0 10 10 10 23 0 13 5 28 11
34 15 15 -5 173 -22 173 -5 0 -9 5 -9 11 0 17 81 4 129 -20 42 -22 201 -186
201 -207 0 -8 4 -14 8 -14 5 0 18 -18 30 -41 19 -35 22 -57 22 -145 0 -63 4
-104 10 -104 6 0 10 -9 10 -19 0 -11 5 -23 10 -26 6 -3 10 -17 10 -31 0 -13 6
-33 12 -44 10 -16 10 -24 0 -40 -6 -11 -12 -31 -12 -45 0 -14 -4 -25 -10 -25
-5 0 -10 -13 -10 -30 0 -16 5 -30 10 -30 6 0 10 -9 10 -20 0 -15 -7 -20 -26
-20 -14 0 -34 -5 -44 -10 -13 -7 -21 -7 -25 0 -3 5 -17 10 -31 10 -13 0 -24 5
-24 10 0 6 -11 10 -24 10 -14 0 -28 5 -31 10 -3 6 -24 10 -45 10 -21 0 -42 5
-45 10 -3 6 -17 10 -31 10 -32 0 -31 15 4 31 22 9 73 79 58 79 -3 0 -23 -18
-47 -41 -51 -49 -78 -39 -30 12 17 17 31 38 31 45 0 8 5 14 10 14 6 0 10 18
10 39 0 22 5 43 10 46 6 3 10 16 10 27 0 12 5 37 12 55 9 26 9 36 0 45 -9 9
-12 8 -12 -5 0 -9 -4 -17 -10 -17 -5 0 -10 -9 -10 -20 0 -11 -4 -20 -10 -20
-5 0 -10 -9 -10 -20 0 -11 -4 -20 -10 -20 -5 0 -10 -13 -10 -30 0 -16 -4 -30
-10 -30 -5 0 -10 -11 -10 -25 0 -14 -4 -33 -9 -43 -39 -77 -51 -106 -51 -123
0 -10 -3 -19 -8 -19 -4 0 -13 -12 -19 -27 -7 -16 -33 -59 -58 -96 -25 -38 -45
-73 -45 -78 0 -5 -4 -9 -10 -9 -5 0 -10 -7 -10 -15 0 -8 -4 -15 -10 -15 -5 0
-10 -5 -10 -10 0 -13 -135 -148 -180 -180 -19 -13 -41 -30 -49 -38 -7 -7 -35
-24 -62 -38 -27 -13 -49 -29 -49 -34 0 -6 26 -22 58 -37 31 -15 59 -31 60 -35
2 -4 12 -8 23 -8 10 0 19 -4 19 -10 0 -5 7 -10 15 -10 9 0 25 -9 37 -20 12
-11 28 -20 35 -20 7 0 13 -4 13 -9 0 -5 8 -11 18 -14 18 -6 74 -38 82 -48 3
-3 33 -25 68 -48 91 -61 252 -224 306 -309 25 -40 46 -76 46 -81 0 -5 3 -11 8
-13 9 -4 37 -52 60 -100 18 -42 32 -49 32 -18 0 11 -4 20 -10 20 -5 0 -10 7
-10 15 0 8 -4 23 -9 33 -5 9 -39 80 -76 157 -37 77 -71 142 -74 145 -3 3 -11
14 -17 25 -37 67 -54 92 -91 131 -13 13 -23 25 -23 28 0 3 -8 15 -17 27 -44
53 -289 289 -301 289 -5 0 -12 9 -15 20 -3 13 0 20 9 20 8 0 14 5 14 10 0 14
29 12 43 -2 7 -7 25 -29 41 -48 16 -19 65 -75 110 -123 45 -49 85 -96 90 -105
5 -10 22 -29 38 -44 15 -14 28 -29 28 -33 0 -8 26 -35 34 -35 3 0 0 11 -6 25
-6 14 -15 25 -19 25 -4 0 -11 9 -14 20 -4 11 -17 32 -31 45 -13 13 -24 28 -24
33 0 5 -12 22 -27 38 -16 16 -46 51 -68 79 -22 27 -59 69 -82 92 -24 24 -50
54 -59 68 -14 22 -14 26 -1 40 22 21 27 19 72 -25 43 -42 62 -47 24 -6 -41 43
-49 55 -49 71 0 23 17 18 52 -15 17 -17 33 -28 36 -25 3 3 -9 19 -27 36 -19
18 -30 37 -27 45 4 12 20 6 68 -27 35 -24 75 -55 90 -71 14 -15 30 -28 35 -28
4 0 30 -20 57 -45 50 -47 54 -49 80 -39 20 8 21 24 1 24 -8 0 -15 5 -15 10 0
6 -6 10 -14 10 -8 0 -37 23 -65 50 -28 28 -55 50 -59 50 -5 0 -17 8 -28 18
-10 10 -40 32 -66 50 -27 18 -48 36 -48 39 0 11 91 -7 132 -27 41 -20 68 -25
68 -15 0 3 -11 17 -25 31 -21 21 -44 31 -144 60 -13 4 -13 7 0 18 11 12 24 12
69 3 30 -6 57 -14 60 -18 3 -3 24 -9 48 -13 24 -3 66 -18 92 -31 27 -14 52
-21 55 -16 11 18 -137 111 -175 111 -11 0 -20 5 -20 10 0 6 -22 10 -50 10 -38
0 -50 4 -50 15 0 30 129 61 145 35 3 -5 17 -10 31 -10 13 0 24 -4 24 -10 0 -5
7 -10 15 -10 8 0 31 -10 52 -21 37 -21 90 -27 158 -19 17 3 42 1 58 -3 22 -6
27 -4 27 10 0 10 -11 30 -24 46 -20 23 -23 35 -18 75 2 26 9 52 14 59 6 7 5
19 -1 32 -6 11 -11 36 -11 55 0 20 -4 36 -10 36 -5 0 -10 9 -10 20 0 11 -9 35
-20 55 -21 38 -29 145 -10 145 6 0 10 11 10 24 0 14 -4 28 -10 31 -5 3 -10 14
-10 24 0 9 -9 27 -20 39 -11 12 -20 26 -20 32 0 6 -11 22 -24 35 -14 14 -37
41 -53 62 -41 55 -130 141 -153 148 -11 3 -20 11 -20 16 0 5 -9 9 -20 9 -11 0
-20 5 -20 10 0 6 -11 10 -25 10 -39 0 -75 21 -75 44 -1 54 -30 550 -36 609
l-7 67 -378 0 c-241 0 -380 -4 -384 -10z"/>
<path d="M2434 5363 c-42 -36 -63 -98 -48 -137 12 -30 24 -16 24 28 0 54 8 76
26 76 8 0 14 5 14 10 0 16 99 12 116 -4 8 -8 14 -34 14 -59 0 -24 3 -47 7 -51
11 -11 14 -46 3 -46 -6 0 -10 -30 -10 -70 0 -87 16 -92 24 -7 3 34 8 82 12
105 4 28 2 48 -5 55 -6 6 -11 25 -11 42 0 45 -29 67 -93 73 -41 3 -57 0 -73
-15z"/>
<path d="M2137 5227 c-19 -24 -9 -34 20 -19 10 6 31 8 46 5 30 -6 34 1 13 23
-21 21 -58 17 -79 -9z"/>
<path d="M2290 5240 c0 -5 4 -10 9 -10 6 0 13 5 16 10 3 6 -1 10 -9 10 -9 0
-16 -4 -16 -10z"/>
<path d="M2250 5219 c0 -5 5 -7 10 -4 6 3 10 8 10 11 0 2 -4 4 -10 4 -5 0 -10
-5 -10 -11z"/>
<path d="M2050 5152 c-34 -23 -45 -34 -53 -54 -4 -13 -17 -17 -56 -16 -40 1
-55 -3 -70 -20 -10 -12 -29 -22 -42 -22 -13 0 -33 -7 -44 -15 -17 -14 -18 -18
-6 -48 23 -58 26 -81 8 -74 -21 8 -53 -21 -61 -55 -8 -36 -1 -35 34 2 28 29
80 42 80 19 0 -16 30 -43 38 -34 4 4 1 10 -5 12 -7 3 -13 11 -13 19 0 8 -4 14
-9 14 -13 0 -20 71 -10 98 5 12 14 22 21 22 7 0 18 10 23 23 9 19 16 22 57 19
45 -3 78 11 78 34 0 5 19 28 42 51 42 43 35 57 -12 25z"/>
<path d="M2576 5004 c-9 -22 -8 -24 9 -24 8 0 15 9 15 20 0 24 -15 27 -24 4z"/>
<path d="M1710 4768 c0 -49 5 -47 13 5 3 20 2 37 -4 37 -5 0 -9 -19 -9 -42z"/>
<path d="M1877 4764 c3 -7 9 -14 14 -14 14 0 10 17 -5 23 -10 4 -13 1 -9 -9z"/>
<path d="M1940 4750 c23 -32 39 -45 46 -37 5 5 -51 67 -61 67 -3 0 3 -13 15
-30z"/>
<path d="M1690 4713 c0 -13 -4 -23 -10 -23 -5 0 -10 -12 -10 -26 0 -14 -5 -35
-11 -47 -9 -16 -9 -22 0 -25 15 -5 14 -80 -1 -96 -7 -7 -22 -17 -33 -24 -26
-15 -3 -15 47 0 38 11 40 13 34 47 -17 116 -18 139 -7 160 8 15 9 27 2 39 -9
15 -10 14 -11 -5z"/>
<path d="M2119 4675 c-1 -16 0 -34 1 -40 1 -5 8 -56 16 -112 18 -133 12 -167
-61 -398 -19 -60 -35 -111 -35 -113 0 -22 79 106 97 158 29 81 46 351 23 365
-5 3 -10 21 -10 38 -1 18 -7 55 -15 82 -12 43 -14 46 -16 20z"/>
<path d="M1825 4495 c-32 -20 -65 -44 -72 -55 -7 -10 -20 -26 -28 -34 -8 -8
-15 -22 -15 -30 0 -9 -4 -16 -10 -16 -5 0 -10 -9 -10 -20 0 -11 -4 -20 -10
-20 -5 0 -10 -9 -10 -20 0 -11 -4 -20 -10 -20 -5 0 -10 -11 -10 -25 0 -14 -4
-25 -10 -25 -5 0 -10 -11 -10 -25 0 -14 -4 -25 -10 -25 -5 0 -10 -11 -10 -25
0 -14 -4 -25 -10 -25 -5 0 -10 -13 -10 -30 0 -16 -4 -30 -10 -30 -5 0 -10 -13
-10 -30 0 -16 -4 -30 -10 -30 -5 0 -10 -9 -10 -19 0 -11 -4 -23 -10 -26 -5 -3
-10 -17 -10 -31 0 -13 -4 -24 -10 -24 -5 0 -10 -7 -10 -15 0 -8 -4 -23 -9 -33
-36 -65 -81 -175 -75 -180 4 -4 9 -1 11 6 3 7 10 18 17 25 7 6 23 32 37 57 13
25 27 47 32 48 4 2 7 12 7 23 0 10 5 19 10 19 6 0 10 7 10 15 0 8 9 30 20 50
11 20 20 42 20 50 0 8 5 15 10 15 6 0 10 14 10 30 0 17 4 30 8 30 5 0 15 23
22 51 8 27 18 52 22 55 4 3 8 14 8 25 0 10 4 27 9 37 5 9 19 42 32 72 22 49
104 150 123 150 9 0 2 -124 -13 -253 -27 -234 -53 -293 -196 -441 -135 -140
-225 -254 -225 -283 1 -13 9 -7 32 22 17 22 93 101 168 176 161 160 192 202
210 287 7 34 17 62 21 62 5 0 9 14 9 30 0 17 4 30 9 30 5 0 11 17 14 38 3 20
11 64 17 97 17 90 27 325 14 325 -5 0 -37 -16 -69 -35z"/>
<path d="M1168 4503 c6 -2 18 -2 25 0 6 3 1 5 -13 5 -14 0 -19 -2 -12 -5z"/>
<path d="M1560 4432 c-70 -30 -79 -35 -113 -67 -31 -29 -45 -50 -81 -122 -6
-13 -14 -23 -18 -23 -5 0 -8 -7 -8 -15 0 -8 -4 -15 -10 -15 -5 0 -10 -9 -10
-20 0 -11 -4 -20 -10 -20 -5 0 -10 -9 -10 -20 0 -11 -4 -20 -10 -20 -5 0 -10
-13 -10 -30 0 -16 -4 -30 -10 -30 -5 0 -10 -13 -10 -30 0 -16 5 -30 10 -30 6
0 10 9 10 20 0 11 5 20 10 20 6 0 10 14 10 30 0 17 5 30 10 30 6 0 10 9 10 20
0 11 5 20 10 20 6 0 10 9 10 20 0 11 3 20 8 20 4 0 14 14 21 32 14 31 73 98
87 98 4 0 14 8 23 18 9 9 28 23 44 31 15 8 27 18 27 23 0 4 9 8 20 8 11 0 20
5 20 10 0 6 11 10 24 10 33 0 95 27 76 33 -40 14 -98 13 -130 -1z"/>
<path d="M1314 4286 c-17 -18 -40 -45 -49 -60 -10 -15 -32 -34 -49 -43 -62
-31 -186 -132 -186 -151 0 -5 -18 -28 -40 -51 -22 -22 -40 -46 -40 -51 0 -6
-4 -10 -10 -10 -5 0 -10 -7 -10 -15 0 -8 -4 -15 -10 -15 -5 0 -10 -7 -10 -15
0 -8 -3 -15 -7 -15 -5 0 -13 -10 -19 -23 -59 -118 -114 -229 -157 -317 -28
-58 -55 -106 -59 -108 -4 -2 -8 -12 -8 -23 0 -10 -4 -19 -10 -19 -5 0 -10 -7
-10 -15 0 -9 -9 -25 -20 -37 -11 -12 -20 -28 -20 -35 0 -7 -4 -13 -10 -13 -5
0 -10 -4 -10 -10 0 -5 -23 -44 -50 -86 -28 -43 -53 -89 -57 -103 -3 -14 -9
-30 -13 -36 -3 -5 -12 -30 -19 -55 -7 -25 -17 -55 -22 -68 -5 -13 -9 -36 -9
-52 0 -16 -5 -32 -10 -35 -13 -8 -13 -195 0 -195 6 0 10 -16 10 -36 0 -33 5
-60 32 -174 17 -73 35 -123 67 -190 22 -44 31 -78 31 -112 0 -26 5 -48 10 -48
6 0 10 -30 10 -69 0 -39 5 -73 10 -76 6 -3 10 -15 10 -26 0 -27 23 -99 32 -99
5 0 8 -9 8 -20 0 -11 11 -39 25 -62 14 -24 28 -51 32 -60 3 -10 9 -18 14 -18
5 0 9 -7 9 -15 0 -8 4 -15 8 -15 4 0 15 -12 24 -28 33 -54 188 -222 206 -222
4 0 18 -10 32 -23 14 -12 60 -45 102 -72 52 -34 76 -55 73 -65 -2 -8 0 -22 5
-30 7 -11 10 -8 10 15 0 41 -20 68 -69 90 -23 10 -41 22 -41 27 0 4 -6 8 -14
8 -8 0 -63 48 -123 108 -117 116 -153 157 -153 172 0 6 -4 10 -10 10 -5 0 -10
7 -10 15 0 8 -3 15 -8 15 -14 0 -52 124 -52 170 0 11 -4 20 -10 20 -5 0 -10
20 -10 45 0 25 -4 45 -10 45 -5 0 -10 18 -10 39 0 22 -4 43 -10 46 -5 3 -10
35 -10 70 0 35 -4 67 -10 70 -21 13 0 445 22 445 4 0 8 24 8 54 0 30 4 58 10
61 6 3 10 24 10 46 0 22 5 39 11 39 7 0 9 -17 4 -52 -3 -29 -8 -97 -11 -150
-3 -54 -10 -98 -15 -98 -6 0 -8 -73 -5 -197 5 -216 13 -313 27 -327 5 -6 9
-22 9 -37 0 -15 5 -31 10 -34 6 -3 10 -19 10 -36 0 -16 5 -29 10 -29 6 0 10
-13 10 -30 0 -16 5 -30 10 -30 6 0 10 -6 10 -14 0 -17 80 -173 112 -218 13
-18 24 -35 25 -37 2 -2 6 -1 10 3 4 4 3 10 -2 14 -28 20 -145 285 -145 328 0
12 -4 26 -10 29 -5 3 -10 22 -10 41 0 19 -4 42 -9 52 -5 9 -15 62 -21 117 -17
146 -2 647 21 670 5 5 9 35 9 66 0 32 5 61 10 64 6 3 10 21 10 40 0 19 4 44 9
57 5 13 17 59 26 103 20 95 75 269 87 273 4 2 8 12 8 23 0 10 5 19 10 19 6 0
10 9 10 20 0 11 5 20 10 20 6 0 10 10 10 23 -1 22 -1 22 -15 2 -9 -11 -26 -33
-40 -50 -45 -54 -60 -73 -75 -95 -8 -12 -21 -28 -27 -36 -7 -7 -13 -17 -13
-23 0 -6 -4 -11 -10 -11 -5 0 -10 -7 -10 -15 0 -8 -4 -15 -10 -15 -5 0 -10 -6
-10 -14 0 -8 -3 -16 -7 -18 -10 -4 -42 -57 -50 -80 -3 -10 -9 -18 -14 -18 -5
0 -9 -9 -9 -20 0 -11 -4 -20 -10 -20 -5 0 -10 -9 -10 -20 0 -11 -4 -20 -10
-20 -5 0 -10 -7 -10 -15 0 -8 -4 -23 -9 -33 -32 -63 -54 -152 -72 -292 -6 -52
-15 -101 -19 -108 -13 -25 -43 60 -48 136 -5 77 15 249 29 258 5 3 9 14 9 25
0 18 85 198 99 209 3 3 13 19 21 35 8 17 23 39 33 49 9 11 17 24 17 28 0 5 9
18 20 30 11 12 20 28 20 35 0 7 5 13 10 13 6 0 10 9 10 20 0 11 5 20 10 20 6
0 10 6 10 13 0 6 17 48 38 92 70 144 92 195 92 210 0 8 5 15 10 15 6 0 10 9
10 20 0 11 4 20 9 20 5 0 11 8 14 18 8 23 40 76 50 80 4 2 7 9 7 16 0 6 9 18
20 26 11 8 20 19 20 25 0 11 104 125 114 125 3 0 25 18 47 40 23 22 44 38 46
36 5 -5 -16 -48 -27 -56 -13 -9 -80 -146 -80 -164 0 -9 -4 -16 -10 -16 -5 0
-10 -15 -9 -32 1 -26 3 -28 8 -13 12 36 85 180 93 183 5 2 8 9 8 15 0 7 14 28
30 47 16 19 30 41 30 48 0 6 5 12 10 12 6 0 10 7 10 15 0 8 4 15 8 15 4 0 16
14 26 30 9 17 28 41 42 55 13 13 24 27 24 30 0 12 -17 2 -46 -29z m-599 -1263
c-4 -10 -10 -28 -12 -41 -3 -12 -9 -25 -14 -28 -5 -3 -9 -16 -9 -30 0 -13 -4
-24 -10 -24 -5 0 -10 -13 -10 -30 0 -16 -4 -30 -10 -30 -5 0 -10 -16 -10 -35
0 -19 -4 -35 -9 -35 -8 0 -14 -23 -27 -113 -4 -20 -10 -40 -15 -43 -5 -3 -9
-123 -9 -266 0 -251 -7 -330 -17 -176 -2 40 -8 77 -13 82 -6 6 -10 50 -10 99
0 79 -2 88 -16 83 -15 -6 -16 5 -10 116 4 68 12 139 18 158 19 62 41 98 55 93
9 -3 13 3 13 21 0 14 5 26 10 26 6 0 10 8 10 19 0 18 55 134 75 158 15 18 28
15 20 -4z"/>
<path d="M3233 3913 c-7 -3 25 -42 70 -89 136 -139 167 -173 167 -182 0 -4 15
-24 33 -44 53 -59 67 -78 67 -88 0 -6 5 -10 10 -10 6 0 10 -7 10 -15 0 -8 3
-15 8 -15 7 0 37 -61 93 -195 19 -44 42 -93 51 -110 l18 -30 0 103 c0 106 -9
136 -60 212 -9 14 -41 62 -70 107 -28 45 -63 95 -76 110 -13 15 -24 32 -24 36
0 4 -10 18 -22 31 -13 13 -30 32 -39 42 -26 31 -63 60 -125 96 -63 37 -92 47
-111 41z"/>
<path d="M1772 3660 c0 -14 2 -19 5 -12 2 6 2 18 0 25 -3 6 -5 1 -5 -13z"/>
<path d="M1693 3592 c-13 -15 -23 -35 -23 -45 0 -9 -4 -25 -9 -35 -5 -9 -14
-30 -21 -47 -7 -16 -16 -38 -21 -47 -5 -10 -9 -25 -9 -33 0 -8 -4 -15 -10 -15
-5 0 -10 -13 -10 -30 0 -16 -4 -30 -10 -30 -5 0 -10 -7 -10 -15 0 -8 5 -15 10
-15 6 0 10 7 10 15 0 8 5 15 10 15 6 0 10 9 10 20 0 11 5 20 10 20 6 0 10 9
10 20 0 11 5 20 10 20 6 0 10 9 10 20 0 11 5 20 10 20 6 0 10 9 10 20 0 11 3
20 8 20 11 0 29 50 37 103 3 26 5 47 3 47 -2 0 -13 -13 -25 -28z"/>
<path d="M1576 3555 c-21 -24 -45 -56 -53 -72 -8 -15 -18 -30 -22 -33 -14 -9
-101 -138 -101 -149 0 -6 -4 -11 -9 -11 -5 0 -14 -13 -21 -30 -7 -16 -16 -30
-19 -30 -4 0 -13 -16 -21 -35 -8 -19 -17 -35 -22 -35 -4 0 -8 -9 -8 -20 0 -11
-4 -20 -10 -20 -5 0 -10 -9 -10 -20 0 -11 -4 -20 -10 -20 -5 0 -10 -9 -10 -20
0 -11 -4 -20 -8 -20 -4 0 -14 -21 -21 -47 -8 -27 -17 -52 -21 -58 -17 -25 -54
-316 -45 -353 l7 -27 12 30 c7 17 18 56 26 88 7 32 17 60 22 63 4 3 8 21 8 40
0 19 5 34 10 34 6 0 10 13 10 29 0 17 5 33 10 36 6 3 10 17 10 30 0 13 4 26 8
29 4 3 14 28 22 56 8 28 18 53 22 56 4 3 8 16 8 30 0 13 5 24 10 24 6 0 10 9
10 20 0 11 5 20 10 20 6 0 10 6 10 14 0 18 41 98 57 111 11 9 29 49 86 188 6
15 15 27 19 27 4 0 8 4 8 10 0 9 13 27 45 64 27 30 37 46 29 46 -5 0 -26 -20
-48 -45z"/>
<path d="M1747 3440 c-3 -58 -9 -130 -12 -160 l-5 -55 19 50 c16 43 17 67 12
160 l-7 110 -7 -105z"/>
<path d="M3222 3495 c15 -14 34 -25 42 -25 8 0 18 -4 21 -10 3 -5 19 -10 35
-10 16 0 32 -4 35 -10 3 -5 17 -10 31 -10 13 0 24 -4 24 -10 0 -5 12 -10 27
-10 l27 0 -22 20 c-12 11 -26 20 -31 20 -6 0 -26 9 -45 19 -36 21 -129 51
-155 51 -11 0 -8 -7 11 -25z"/>
<path d="M3132 3455 c0 -25 5 -51 11 -58 7 -6 18 -24 26 -39 8 -16 18 -28 23
-28 4 0 8 -9 8 -20 0 -11 5 -20 10 -20 6 0 10 -7 10 -15 0 -8 4 -15 9 -15 5 0
11 -8 14 -17 6 -18 37 -73 47 -83 3 -3 18 -30 34 -60 48 -90 51 -95 57 -100 3
-3 25 -45 48 -95 24 -49 46 -97 50 -105 4 -8 14 -36 22 -62 7 -27 17 -48 22
-48 9 0 3 186 -8 260 -4 25 -11 49 -16 54 -5 6 -9 18 -9 29 0 21 -52 134 -89
192 -21 32 -254 275 -265 275 -2 0 -3 -20 -4 -45z"/>
<path d="M1217 3432 c-10 -10 -17 -24 -17 -30 0 -7 -4 -12 -9 -12 -5 0 -13 -9
-16 -20 -3 -11 -12 -26 -19 -32 -18 -19 -106 -202 -106 -221 0 -10 -4 -17 -10
-17 -5 0 -10 -13 -10 -29 0 -17 -4 -33 -10 -36 -5 -3 -10 -17 -10 -30 0 -13
-4 -27 -10 -30 -5 -3 -10 -24 -10 -46 0 -21 -4 -39 -10 -39 -5 0 -10 -22 -10
-49 0 -28 -4 -53 -10 -56 -5 -3 -10 -15 -10 -26 0 -10 5 -19 10 -19 6 0 10 11
10 25 0 14 5 25 10 25 6 0 10 13 10 29 0 17 5 33 10 36 6 3 10 17 10 30 0 13
5 27 10 30 6 3 10 17 10 30 0 13 5 27 10 30 6 3 10 19 10 36 0 16 4 29 8 29 4
0 14 21 22 48 13 46 42 117 81 196 10 22 19 46 19 53 0 7 5 13 10 13 6 0 10 9
10 20 0 11 3 20 8 20 8 0 34 51 29 57 -2 2 -11 -5 -20 -15z"/>
<path d="M3385 3360 c3 -5 15 -10 25 -10 10 0 22 -4 25 -10 3 -5 17 -10 31
-10 13 0 24 5 24 10 0 6 -7 10 -15 10 -8 0 -15 5 -15 10 0 6 -18 10 -41 10
-24 0 -38 -4 -34 -10z"/>
<path d="M3475 3260 c3 -5 8 -10 11 -10 2 0 4 5 4 10 0 6 -5 10 -11 10 -5 0
-7 -4 -4 -10z"/>
<path d="M3200 3215 c0 -8 5 -15 10 -15 6 0 10 -9 10 -20 0 -11 5 -20 10 -20
6 0 10 -9 10 -20 0 -11 5 -20 10 -20 6 0 10 -9 10 -20 0 -11 5 -20 10 -20 6 0
10 -9 10 -20 0 -11 5 -20 10 -20 6 0 10 -9 10 -19 0 -11 4 -21 8 -23 17 -7 51
-138 58 -221 5 -60 11 -87 20 -87 7 0 15 6 17 13 3 6 6 -7 6 -30 1 -44 -17
-59 -26 -23 -3 11 -9 20 -13 20 -5 0 -11 18 -15 40 -4 22 -11 40 -16 40 -5 0
-7 -10 -4 -22 2 -13 12 -61 20 -108 26 -138 26 -139 35 -115 5 11 9 42 9 70 1
48 1 49 17 26 14 -19 16 -57 17 -249 0 -125 -5 -270 -12 -322 -19 -153 -33
-234 -41 -245 -4 -5 -10 -19 -12 -30 -2 -11 -4 53 -3 142 0 173 -10 217 -34
145 -10 -30 -11 -55 -2 -107 11 -71 0 -210 -20 -250 -5 -11 -8 -74 -7 -140 l3
-120 27 85 c78 250 96 337 119 575 16 153 22 516 9 529 -5 5 -10 22 -10 38 0
56 -50 216 -100 319 -16 34 -30 68 -30 75 0 7 -3 14 -7 16 -5 2 -19 24 -32 51
-13 26 -27 47 -31 47 -3 0 -12 16 -20 35 -14 36 -30 47 -30 20z"/>
<path d="M3760 3126 c0 -3 14 -30 31 -61 36 -66 35 -80 -5 -60 -32 17 -52 10
-22 -7 10 -6 38 -30 61 -54 23 -24 45 -44 48 -44 4 0 7 14 7 30 0 17 -4 30
-10 30 -5 0 -10 12 -10 26 0 15 -8 34 -18 43 -9 9 -23 28 -31 44 -8 15 -18 27
-23 27 -4 0 -8 7 -8 15 0 8 -4 15 -10 15 -5 0 -10 -2 -10 -4z"/>
<path d="M1122 2992 c-19 -37 -42 -84 -53 -105 -10 -22 -19 -47 -19 -57 0 -11
-4 -22 -10 -25 -5 -3 -10 -17 -10 -31 0 -13 -4 -24 -10 -24 -5 0 -10 -13 -10
-30 0 -16 -4 -30 -10 -30 -5 0 -10 -15 -10 -34 0 -19 -4 -38 -10 -41 -5 -3
-10 -22 -10 -41 0 -19 -4 -34 -10 -34 -5 0 -10 -18 -10 -40 0 -22 -4 -40 -10
-40 -6 0 -10 -28 -10 -64 0 -36 -4 -68 -10 -71 -6 -4 -10 -63 -10 -145 0 -82
4 -141 10 -145 6 -3 10 -35 10 -71 0 -36 4 -64 10 -64 6 0 10 -18 10 -40 0
-22 5 -40 10 -40 6 0 10 -18 10 -40 0 -22 5 -40 10 -40 6 0 10 -11 10 -24 0
-14 5 -28 10 -31 6 -3 10 -17 10 -31 0 -13 5 -24 10 -24 6 0 10 -8 11 -17 0
-15 2 -14 9 3 13 32 0 144 -16 144 -8 0 -14 9 -14 20 0 11 -4 20 -10 20 -5 0
-10 18 -10 40 0 22 -4 40 -10 40 -5 0 -10 20 -10 44 0 25 -4 48 -10 51 -5 3
-10 31 -10 61 0 30 -4 54 -10 54 -6 0 -10 32 -10 75 0 43 4 75 10 75 6 0 10
28 10 64 0 36 5 68 10 71 6 3 10 33 10 65 0 32 5 62 10 65 6 3 10 24 10 46 0
21 4 47 9 57 13 26 31 86 31 105 0 9 5 17 10 17 6 0 10 13 10 29 0 17 5 33 10
36 6 3 10 13 10 21 0 8 9 33 19 57 55 121 73 167 70 176 -2 6 -19 -20 -37 -57z"/>
<path d="M2185 2970 c3 -5 38 -10 78 -10 89 0 83 -8 -53 -76 -52 -26 -89 -49
-81 -52 7 -2 23 0 34 6 12 5 33 14 47 21 34 15 178 51 207 51 27 0 29 8 6 25
-15 11 -15 15 -4 29 12 15 2 16 -113 16 -82 0 -125 -4 -121 -10z"/>
<path d="M3260 2964 c0 -8 5 -12 10 -9 6 3 10 10 10 16 0 5 -4 9 -10 9 -5 0
-10 -7 -10 -16z"/>
<path d="M3281 2918 c-1 -16 3 -28 8 -28 5 0 11 -15 14 -32 10 -62 23 -103 29
-93 7 12 -1 65 -11 65 -3 0 -7 10 -7 23 -1 12 -9 38 -17 57 -15 34 -15 35 -16
8z"/>
<path d="M3650 2883 c0 -30 36 -216 47 -243 4 -8 8 -26 9 -39 5 -43 16 -37 12
7 -3 38 -2 42 20 42 14 0 43 -20 79 -55 30 -31 58 -53 61 -50 15 15 -72 145
-98 145 -5 0 -10 3 -10 8 0 4 -13 13 -30 20 -21 10 -32 24 -40 50 -17 63 -13
82 15 82 14 0 33 -4 43 -9 9 -5 36 -17 60 -27 79 -32 106 -100 105 -262 0 -72
-4 -117 -11 -124 -7 -7 -12 -29 -12 -50 0 -21 -4 -38 -10 -38 -5 0 -10 -13
-10 -30 0 -16 -4 -30 -10 -30 -5 0 -10 -9 -10 -20 0 -11 -3 -20 -7 -20 -9 0
-33 -49 -33 -67 0 -7 -4 -13 -10 -13 -5 0 -10 9 -10 20 0 11 -11 37 -24 58
-13 20 -26 52 -30 70 -5 27 -2 32 13 32 10 0 24 -7 31 -15 15 -18 30 -20 30
-4 0 16 -80 90 -91 83 -5 -3 -9 -38 -9 -78 0 -55 4 -77 18 -92 25 -27 43 -95
36 -135 l-7 -34 27 30 c14 17 26 36 26 43 0 6 5 12 10 12 6 0 10 7 10 15 0 8
4 23 9 33 39 77 51 106 51 122 0 11 4 21 9 24 8 6 12 17 32 106 13 55 17 242
6 291 -7 37 -56 97 -93 117 -35 19 -106 40 -156 47 -48 7 -48 7 -48 -22z"/>
<path d="M3590 2794 c0 -8 5 -12 10 -9 6 4 8 11 5 16 -9 14 -15 11 -15 -7z"/>
<path d="M3612 2700 c0 -19 2 -27 5 -17 2 9 2 25 0 35 -3 9 -5 1 -5 -18z"/>
<path d="M1935 2680 c33 -4 67 -3 75 1 9 5 -17 8 -60 7 l-75 -1 60 -7z"/>
<path d="M2045 2680 c28 -12 93 -12 100 0 4 6 -17 10 -57 9 -44 0 -57 -3 -43
-9z"/>
<path d="M1858 2663 c7 -3 16 -2 19 1 4 3 -2 6 -13 5 -11 0 -14 -3 -6 -6z"/>
<path d="M3608 2545 c-3 -22 -2 -47 3 -55 12 -23 21 29 11 65 l-9 30 -5 -40z"/>
<path d="M3731 2544 c0 -11 3 -14 6 -6 3 7 2 16 -1 19 -3 4 -6 -2 -5 -13z"/>
<path d="M1102 2468 c-7 -18 -18 -41 -23 -50 -5 -10 -9 -35 -9 -56 0 -21 -4
-42 -9 -47 -5 -6 -12 -37 -15 -70 -3 -33 -11 -103 -17 -155 -14 -122 -15 -224
-2 -275 13 -50 13 -49 24 120 13 206 28 335 65 533 3 17 5 32 3 32 -2 0 -10
-15 -17 -32z"/>
<path d="M1382 2452 c-12 -15 -22 -33 -22 -39 0 -7 -4 -13 -10 -13 -5 0 -10
-9 -10 -20 0 -11 4 -20 8 -20 4 0 14 9 22 20 8 11 20 20 27 20 7 0 13 5 13 10
0 6 9 10 20 10 11 0 20 5 20 10 0 6 -7 10 -15 10 -8 0 -15 6 -15 14 0 26 -15
25 -38 -2z"/>
<path d="M2506 2439 c-11 -10 -25 -19 -33 -19 -7 0 -13 -5 -13 -11 0 -7 -17
-10 -45 -7 -30 2 -45 -1 -45 -9 0 -6 6 -13 13 -16 19 -6 -9 -35 -44 -42 -16
-4 -29 -12 -29 -20 0 -16 37 -26 69 -18 19 5 22 3 16 -8 -32 -55 -88 -77 -115
-44 -7 8 -18 15 -24 14 -7 0 -6 -2 2 -6 6 -2 12 -11 12 -19 0 -7 12 -17 28
-20 15 -4 33 -11 40 -17 15 -12 16 -80 0 -123 -11 -31 -10 -34 28 -68 27 -25
49 -36 71 -36 37 0 143 -37 143 -50 0 -14 33 -21 41 -9 5 9 27 8 90 -1 90 -13
150 -10 94 5 -16 4 -39 14 -50 21 -17 13 -14 14 33 14 45 0 112 21 112 34 0 3
-42 2 -92 -1 -118 -6 -341 18 -354 38 -3 5 -15 9 -28 9 -45 0 -54 35 -40 156
6 46 10 53 41 68 18 9 36 23 39 31 7 18 34 20 34 3 0 -7 -18 -35 -40 -63 -40
-50 -46 -68 -34 -100 6 -14 8 -13 18 6 6 12 20 27 30 33 28 16 66 53 66 66 0
5 5 10 10 10 6 0 10 6 10 13 0 24 77 61 106 50 21 -8 17 -32 -8 -43 -42 -17
-78 -61 -78 -95 0 -22 6 -19 51 25 51 49 70 54 171 47 108 -9 192 -49 196 -95
4 -39 32 -45 32 -7 0 31 18 25 45 -15 22 -33 52 -42 40 -12 -4 9 -17 42 -28
72 -26 66 -102 147 -146 156 -17 4 -31 10 -31 15 0 5 -11 9 -25 9 -14 0 -35 9
-47 20 -12 11 -28 20 -35 20 -7 0 -13 5 -13 10 0 6 -13 10 -29 10 -17 0 -33 5
-36 10 -3 6 -33 10 -65 10 -32 0 -62 5 -65 10 -10 17 -69 10 -89 -11z"/>
<path d="M3585 2368 c-3 -35 -8 -134 -11 -220 -3 -90 -9 -158 -14 -158 -6 0
-10 -38 -10 -85 0 -50 -4 -85 -10 -85 -6 0 -10 -30 -10 -69 0 -39 -4 -73 -10
-76 -5 -3 -10 -24 -10 -45 0 -21 -4 -42 -10 -45 -5 -3 -10 -15 -10 -27 0 -25
-37 -95 -67 -126 -13 -13 -23 -27 -23 -33 0 -5 20 11 45 35 25 25 45 52 45 61
0 8 3 15 8 15 10 0 32 50 32 72 0 10 5 18 10 18 6 0 10 7 10 16 0 9 8 24 18
33 23 22 42 57 42 78 0 27 22 83 53 134 37 63 77 177 77 220 0 20 -6 51 -13
68 -20 47 -33 22 -40 -74 -3 -44 -15 -111 -27 -150 l-22 -69 -14 33 c-11 25
-14 92 -14 282 0 239 -11 328 -25 197z"/>
<path d="M837 2270 c-9 -129 5 -352 29 -458 9 -37 18 -79 21 -95 3 -15 9 -30
14 -33 5 -3 9 -14 9 -25 0 -10 5 -19 10 -19 6 0 10 -9 10 -20 0 -11 3 -20 8
-20 4 0 14 -15 21 -32 8 -18 25 -43 38 -56 13 -12 23 -27 23 -32 0 -10 41 -53
113 -116 36 -32 48 -50 51 -79 5 -43 13 -54 21 -33 3 8 -1 48 -10 89 -8 41
-15 89 -15 107 0 18 -5 42 -10 53 -6 11 -7 26 -2 35 7 12 11 9 21 -13 7 -15
17 -35 20 -43 4 -8 14 -36 22 -62 7 -27 17 -48 21 -48 4 0 8 -11 8 -25 0 -14
5 -25 10 -25 6 0 10 -9 10 -20 0 -11 5 -20 10 -20 6 0 10 -7 10 -15 0 -15 4
-25 28 -72 7 -13 12 -41 12 -62 0 -26 9 -53 25 -77 14 -20 25 -31 25 -25 0 7
10 11 22 9 23 -3 33 -23 43 -90 7 -45 22 -50 31 -10 12 53 15 62 25 62 16 0
39 27 39 44 0 9 4 16 9 16 5 0 11 13 14 29 3 16 13 36 22 44 8 9 15 23 15 31
0 9 5 16 10 16 6 0 10 6 10 14 0 8 3 16 8 18 8 3 35 53 89 162 19 37 40 74 47
81 7 7 19 27 26 44 12 30 13 30 29 14 24 -26 66 -46 87 -41 18 5 18 5 -1 12
-61 21 -70 31 -73 74 -2 30 3 50 17 71 12 16 21 32 21 36 0 4 10 16 22 26 11
11 19 22 16 25 -10 9 -132 -117 -171 -176 -20 -30 -41 -60 -47 -67 -5 -7 -10
-19 -10 -28 0 -8 -4 -15 -10 -15 -5 0 -10 -9 -10 -20 0 -11 -4 -20 -10 -20 -5
0 -10 -9 -10 -20 0 -11 -4 -20 -10 -20 -5 0 -10 -9 -10 -19 0 -11 -4 -23 -10
-26 -5 -3 -10 -15 -10 -26 0 -10 -4 -19 -10 -19 -5 0 -10 -9 -10 -20 0 -11 -4
-20 -10 -20 -5 0 -10 -9 -10 -20 0 -11 -4 -20 -10 -20 -5 0 -10 -6 -10 -13 0
-7 -11 -35 -24 -63 -26 -52 -27 -51 -45 27 -16 68 -73 188 -93 197 -5 2 -8 12
-8 23 0 10 -3 19 -8 19 -4 0 -18 21 -32 48 -13 26 -27 49 -31 52 -6 5 -9 25
-26 143 -3 20 -9 37 -14 37 -5 0 -9 20 -9 45 0 25 -4 45 -10 45 -5 0 -10 14
-10 30 0 17 -4 30 -8 30 -22 0 -35 82 -30 190 5 104 -4 154 -17 93 -4 -15 -10
-37 -15 -48 -4 -11 -18 -63 -31 -115 -18 -76 -24 -132 -27 -282 -3 -124 -8
-188 -15 -188 -10 0 -69 59 -109 109 -10 12 -18 30 -18 41 0 11 -4 20 -10 20
-5 0 -10 11 -10 25 0 14 -4 25 -10 25 -5 0 -10 16 -10 35 0 19 -4 35 -10 35
-5 0 -10 15 -10 34 0 19 -4 37 -9 40 -5 3 -11 20 -14 38 -3 18 -11 53 -17 78
-7 25 -15 137 -19 250 l-6 205 -8 -115z"/>
<path d="M1650 2370 c0 -5 -13 -10 -29 -10 -38 0 -87 -25 -70 -36 7 -4 72 -12
146 -17 84 -7 132 -14 130 -21 -2 -6 23 -36 55 -68 41 -40 58 -65 58 -82 0
-42 -24 -31 -101 44 -40 39 -77 70 -83 70 -5 0 -1 6 9 14 18 13 18 14 -1 19
-10 3 -46 2 -79 -3 -232 -34 -307 -76 -321 -181 -4 -27 -11 -52 -15 -55 -5 -3
-9 -14 -9 -25 0 -16 5 -18 28 -13 15 4 34 15 43 26 21 23 47 23 68 0 24 -28
60 -44 79 -37 15 6 14 8 -5 16 -40 15 -25 79 19 79 13 0 18 -8 18 -30 0 -16 5
-30 10 -30 6 0 10 -6 10 -14 0 -18 64 -40 95 -32 13 3 40 28 60 56 20 27 39
50 42 50 2 0 11 -7 19 -15 12 -11 13 -19 4 -36 -17 -31 -2 -38 21 -9 15 20 21
22 28 11 11 -18 43 -7 35 12 -4 10 5 16 28 19 18 3 39 3 46 1 14 -6 16 -69 2
-78 -12 -7 -14 -75 -2 -75 4 0 14 15 21 33 15 32 34 57 45 57 3 0 6 -24 6 -52
0 -38 3 -49 10 -38 5 8 10 65 10 127 0 115 7 136 37 111 15 -12 16 -7 10 59
-6 79 -31 143 -54 143 -10 0 -13 -5 -8 -17 14 -34 17 -90 6 -97 -6 -4 -18 3
-28 15 -31 38 -56 59 -70 59 -7 0 -13 5 -13 10 0 6 -9 10 -20 10 -11 0 -20 5
-20 10 0 6 -18 10 -40 10 -22 0 -40 5 -40 10 0 6 -38 10 -95 10 -57 0 -95 -4
-95 -10z m308 -104 c35 -19 52 -40 80 -98 30 -64 28 -118 -4 -118 -10 0 -14
13 -14 44 0 37 -6 49 -39 84 -22 22 -49 43 -60 47 -12 3 -21 10 -21 15 0 5 -9
12 -20 15 -11 3 -20 11 -20 16 0 14 68 11 98 -5z m-208 -43 c35 -24 153 -144
147 -149 -2 -2 -39 14 -82 36 -70 36 -85 40 -149 40 -58 -1 -82 -6 -131 -30
-81 -41 -97 -40 -74 2 23 42 88 88 159 111 35 12 107 6 130 -10z m-96 -109 c4
-9 1 -23 -5 -30 -9 -11 -13 -11 -26 1 -12 12 -12 17 -1 29 17 20 24 20 32 0z"/>
<path d="M1313 2234 c-7 -7 -13 -24 -13 -38 0 -31 -18 -124 -30 -151 -9 -22
-20 -65 -16 -65 11 0 46 41 46 54 0 9 5 16 10 16 6 0 10 36 10 89 0 61 4 91
12 93 7 3 8 7 3 10 -6 3 -16 0 -22 -8z"/>
<path d="M2750 2200 c-8 -5 -24 -10 -36 -10 -11 0 -30 -9 -42 -20 -12 -11 -26
-20 -32 -20 -5 0 -24 -13 -42 -30 -17 -16 -37 -30 -44 -30 -19 0 -17 -29 2
-37 11 -4 28 8 54 36 21 22 42 41 48 41 6 0 16 -16 21 -36 13 -48 36 -63 94
-64 50 0 77 15 77 44 0 9 5 16 10 16 6 0 10 9 10 19 0 34 52 37 64 5 3 -9 1
-24 -4 -35 -6 -10 -7 -19 -2 -19 13 0 42 34 42 50 0 19 -40 51 -72 57 -16 3
-28 9 -28 13 0 4 -15 10 -32 13 -18 3 -42 8 -53 11 -11 3 -27 2 -35 -4z m-10
-75 c11 -13 8 -15 -15 -15 -23 0 -26 2 -15 15 7 8 14 15 15 15 1 0 8 -7 15
-15z"/>
<path d="M1207 2151 c-2 -10 -1 -25 4 -32 6 -10 9 -4 9 19 0 36 -5 42 -13 13z"/>
<path d="M1698 1883 c7 -3 16 -2 19 1 4 3 -2 6 -13 5 -11 0 -14 -3 -6 -6z"/>
<path d="M2630 1879 c21 -19 80 -39 116 -38 l29 1 -30 10 c-16 6 -34 14 -40
18 -5 5 -28 12 -50 16 -34 6 -37 5 -25 -7z"/>
<path d="M2383 1820 c-9 -33 -21 -60 -25 -60 -4 0 -8 -9 -8 -20 0 -11 -4 -20
-10 -20 -20 0 -10 -37 25 -90 19 -30 35 -65 35 -77 0 -24 11 -35 26 -25 17 12
34 62 34 100 l0 37 -21 -34 c-16 -26 -23 -31 -29 -20 -21 32 -21 88 0 168 11
45 18 86 15 91 -13 21 -25 7 -42 -50z"/>
<path d="M2072 1782 c-6 -31 -14 -83 -17 -114 -5 -44 -10 -56 -21 -51 -8 3
-14 12 -14 20 0 23 -31 42 -67 43 -43 0 -42 -12 2 -33 40 -19 104 -102 105
-134 0 -13 5 -23 10 -23 6 0 10 30 10 70 0 38 7 89 15 112 27 82 28 151 0 162
-9 3 -16 -13 -23 -52z"/>
<path d="M1673 1803 c-13 -2 -23 -9 -23 -14 0 -5 -22 -9 -50 -9 -27 0 -50 -4
-50 -10 0 -5 9 -10 19 -10 11 0 22 -6 25 -12 5 -10 7 -10 12 0 3 6 14 12 25
12 10 0 19 5 19 10 0 6 9 10 19 10 10 0 21 7 25 15 3 8 4 14 3 14 -1 -1 -12
-4 -24 -6z"/>
<path d="M2815 1770 c-3 -5 -1 -10 4 -10 6 0 11 5 11 10 0 6 -2 10 -4 10 -3 0
-8 -4 -11 -10z"/>
<path d="M2850 1751 c0 -5 8 -12 19 -16 10 -3 31 -17 47 -30 16 -14 73 -47
127 -73 81 -39 97 -50 97 -69 0 -22 -17 -61 -31 -73 -39 -33 -139 -220 -139
-259 0 -11 -4 -23 -10 -26 -12 -8 -13 -45 -1 -45 5 0 12 -17 15 -37 4 -21 9
-53 12 -70 4 -21 2 -33 -5 -33 -6 0 -11 -7 -11 -15 0 -8 5 -15 10 -15 6 0 10
5 10 12 0 6 12 35 27 65 21 41 32 53 51 53 31 0 54 24 50 51 -2 12 3 24 10 26
6 3 12 0 12 -6 0 -6 5 -11 10 -11 6 0 10 13 10 29 0 17 5 33 10 36 6 3 10 19
10 36 0 16 5 29 10 29 6 0 10 -4 10 -9 0 -5 9 -13 20 -16 20 -6 29 -45 10 -45
-5 0 -10 -23 -10 -51 0 -52 14 -59 23 -12 3 16 11 48 17 73 19 74 23 120 11
120 -6 0 -11 17 -11 37 0 62 -24 157 -45 180 -11 12 -65 43 -120 68 -55 25
-108 50 -117 55 -10 6 -25 10 -33 10 -8 0 -15 5 -15 10 0 6 -9 10 -20 10 -11
0 -20 5 -20 10 0 6 -9 10 -20 10 -11 0 -20 -4 -20 -9z"/>
<path d="M2506 1728 c-6 -23 -26 -134 -26 -146 0 -7 5 -12 10 -12 6 0 10 7 10
15 0 8 5 15 10 15 6 0 10 18 10 40 0 33 3 40 20 40 11 0 20 -7 20 -15 0 -8 5
-15 10 -15 6 0 10 -7 10 -15 0 -8 5 -15 10 -15 6 0 10 -9 10 -19 0 -11 5 -23
10 -26 16 -10 11 -78 -8 -102 -26 -33 -83 -63 -120 -63 -31 0 -70 -16 -83 -34
-15 -20 -27 5 -16 33 5 15 7 37 2 47 -5 12 -9 15 -12 7 -3 -7 -13 -13 -24 -13
-10 0 -19 -4 -19 -10 0 -5 -24 -10 -54 -10 -30 0 -58 -4 -61 -10 -3 -5 -19
-10 -35 -10 -16 0 -32 5 -35 10 -3 6 -17 10 -31 10 -13 0 -24 5 -24 12 0 6 -3
9 -6 5 -13 -13 32 -56 59 -57 18 0 27 -5 27 -16 0 -17 -23 -44 -38 -44 -7 0
-7 -10 0 -27 10 -26 15 -28 72 -29 34 0 64 4 69 10 5 8 10 7 16 -3 6 -10 10
-10 16 -1 4 6 17 10 29 8 12 -1 33 7 46 20 13 12 30 22 37 22 17 0 137 62 141
73 2 4 14 7 27 7 13 0 27 5 30 10 3 6 23 10 43 10 33 0 41 -6 72 -51 19 -28
41 -57 48 -64 6 -7 12 -18 12 -24 0 -6 5 -11 10 -11 6 0 10 -7 10 -15 0 -8 5
-15 10 -15 6 0 10 -7 10 -15 0 -8 5 -15 10 -15 6 0 10 9 10 20 0 11 -4 20 -10
20 -5 0 -10 7 -10 15 0 8 -4 23 -9 33 -14 26 -45 98 -76 177 -36 90 -74 145
-127 184 -24 16 -48 34 -54 39 -27 24 -54 33 -58 20z"/>
<path d="M1940 1460 c0 -5 5 -10 10 -10 6 0 10 5 10 10 0 6 -4 10 -10 10 -5 0
-10 -4 -10 -10z"/>
<path d="M2040 1170 c0 -5 -22 -10 -49 -10 -28 0 -53 -4 -56 -10 -3 -5 -15
-10 -26 -10 -11 0 -29 -9 -41 -20 -12 -11 -27 -20 -34 -20 -7 0 -16 -9 -19
-20 -3 -11 -13 -20 -21 -20 -8 0 -14 -5 -14 -12 0 -6 -6 -3 -14 7 -13 18 -14
17 -21 -13 -3 -17 -3 -57 0 -87 7 -50 5 -58 -15 -75 -20 -17 -21 -21 -7 -35 9
-8 23 -15 33 -15 9 0 25 -10 35 -21 43 -49 66 11 29 76 -26 46 -27 116 -2 138
10 10 32 17 49 17 16 0 33 3 37 8 4 4 42 12 84 18 l77 11 -62 2 c-51 1 -63 4
-63 17 0 26 31 43 77 44 23 0 45 5 48 10 8 13 85 13 85 1 0 -6 17 -11 37 -13
27 -2 39 -8 41 -20 2 -13 -3 -18 -17 -18 -12 0 -21 -4 -21 -10 0 -6 33 -10 80
-10 73 0 80 2 80 20 0 17 7 20 44 20 25 0 48 5 51 10 3 6 31 10 61 10 47 0 54
-2 54 -20 0 -11 -4 -20 -10 -20 -5 0 -10 -4 -10 -10 0 -5 14 -10 30 -10 17 0
30 -4 30 -10 0 -5 7 -10 15 -10 16 0 51 -18 72 -37 20 -18 16 -35 -17 -70 -17
-18 -30 -34 -30 -37 0 -16 39 -3 60 19 13 14 34 25 47 25 14 0 23 6 23 15 0
19 -159 185 -177 185 -7 0 -13 5 -13 10 0 6 -48 10 -125 10 -77 0 -125 -4
-125 -10 0 -6 -26 -10 -59 -10 -33 0 -63 5 -66 10 -3 6 -42 10 -86 10 -46 0
-79 -4 -79 -10z"/>
<path d="M1172 1120 c0 -14 2 -19 5 -12 2 6 2 18 0 25 -3 6 -5 1 -5 -13z"/>
<path d="M3200 1110 c0 -5 5 -10 10 -10 6 0 10 5 10 10 0 6 -4 10 -10 10 -5 0
-10 -4 -10 -10z"/>
<path d="M1267 1073 c-12 -20 -5 -104 10 -110 18 -7 31 6 16 15 -7 4 -13 30
-15 57 -2 28 -6 45 -11 38z"/>
<path d="M2480 1070 c0 -5 6 -10 14 -10 8 0 18 5 21 10 3 6 -3 10 -14 10 -12
0 -21 -4 -21 -10z"/>
<path d="M3186 1025 c-3 -8 -1 -15 4 -15 6 0 10 7 10 15 0 8 -2 15 -4 15 -2 0
-6 -7 -10 -15z"/>
<path d="M3171 964 c0 -11 3 -14 6 -6 3 7 2 16 -1 19 -3 4 -6 -2 -5 -13z"/>
<path d="M1280 915 c0 -8 5 -15 10 -15 6 0 10 7 10 15 0 8 -4 15 -10 15 -5 0
-10 -7 -10 -15z"/>
<path d="M2285 908 c-27 -5 -104 -14 -170 -21 l-120 -13 139 -8 c76 -5 167 -6
201 -2 58 6 64 5 70 -14 5 -17 8 -18 21 -6 7 8 19 16 26 18 16 6 1 28 -20 28
-9 0 -26 7 -36 15 -22 16 -36 17 -111 3z"/>
<path d="M3145 880 c-3 -5 -1 -10 4 -10 6 0 11 5 11 10 0 6 -2 10 -4 10 -3 0
-8 -4 -11 -10z"/>
<path d="M3126 833 c-4 -9 -2 -21 4 -27 7 -7 10 -2 10 17 0 31 -5 34 -14 10z"/>
<path d="M3108 790 c-27 -65 -39 -111 -35 -126 4 -16 5 -15 6 4 0 12 6 22 11
22 6 0 10 8 10 18 0 10 5 23 11 29 6 6 9 23 7 39 -3 19 -6 24 -10 14z"/>
<path d="M2090 656 c0 -23 -22 -31 -35 -13 -10 14 -12 13 -23 -4 -11 -17 -9
-21 13 -31 14 -6 25 -20 25 -31 0 -15 5 -18 21 -14 18 5 20 2 14 -16 -14 -46
-11 -60 18 -68 19 -5 32 -3 42 8 14 14 18 13 37 -8 14 -16 22 -20 25 -11 5 14
43 16 43 2 0 -5 15 -10 34 -10 26 0 36 5 41 20 8 24 37 26 70 4 29 -19 32 -7
10 37 -14 26 -14 30 -1 35 9 4 14 16 11 32 -6 48 -16 62 -44 62 -22 -1 -24 -2
-8 -11 24 -14 21 -34 -8 -63 -14 -14 -25 -32 -25 -41 0 -8 -4 -15 -9 -15 -15
0 -32 27 -26 42 4 9 -1 22 -9 31 -9 9 -16 23 -16 32 0 19 -20 28 -52 23 -22
-4 -22 -5 -3 -13 48 -20 72 -66 48 -91 -15 -15 -18 -15 -30 2 -12 17 -14 17
-26 -1 -8 -10 -19 -15 -25 -11 -15 9 -16 46 -2 46 6 0 10 7 10 15 0 17 -2 18
-24 9 -9 -3 -16 -17 -16 -31 0 -22 -20 -53 -34 -53 -16 0 -4 66 17 88 15 18
18 26 9 29 -7 3 -19 11 -26 19 -19 18 -46 18 -46 0z"/>
<path d="M1501 614 c0 -11 3 -14 6 -6 3 7 2 16 -1 19 -3 4 -6 -2 -5 -13z"/>
<path d="M1956 592 c-3 -5 6 -15 19 -22 14 -7 25 -17 25 -22 0 -4 9 -8 19 -8
11 0 22 -6 24 -12 3 -7 6 -8 6 -3 0 14 -30 47 -57 63 -26 14 -29 15 -36 4z"/>
<path d="M3084 559 c-3 -5 4 -27 16 -51 25 -52 27 -181 4 -248 -20 -57 -73
-163 -86 -171 -6 -4 -9 -12 -6 -19 2 -7 18 9 36 36 17 27 35 54 40 59 4 6 19
30 32 55 14 25 28 47 33 48 4 2 7 12 7 23 0 10 5 19 10 19 6 0 10 9 10 19 0
11 5 23 10 26 6 3 10 24 10 46 0 22 5 39 11 39 7 0 9 11 6 26 -5 29 17 44 36
25 6 -6 23 -11 38 -11 15 0 31 -4 34 -10 3 -5 16 -10 27 -10 23 0 81 -17 110
-31 10 -5 25 -9 35 -9 15 0 111 -30 158 -50 11 -4 34 -13 50 -18 28 -9 149
-56 269 -103 27 -10 55 -19 62 -19 8 0 14 -4 14 -10 0 -5 11 -10 24 -10 14 0
28 -4 31 -10 3 -5 15 -10 26 -10 10 0 19 -4 19 -10 0 -5 9 -10 20 -10 11 0 20
-4 20 -10 0 -5 6 -10 14 -10 17 0 100 -42 104 -52 2 -5 10 -8 18 -8 8 0 14 -4
14 -10 0 -5 6 -10 13 -10 7 0 22 -8 33 -18 42 -38 74 -52 121 -52 44 1 46 2
28 15 -11 8 -24 18 -30 23 -5 4 -41 23 -78 42 -38 19 -71 38 -73 42 -3 4 -14
8 -25 8 -10 0 -19 5 -19 10 0 6 -7 10 -15 10 -8 0 -30 9 -50 20 -20 11 -44 20
-55 20 -11 0 -20 5 -20 10 0 6 -9 10 -20 10 -11 0 -20 4 -20 8 0 4 -21 14 -47
21 -27 8 -55 18 -63 22 -8 5 -62 25 -120 45 -58 20 -113 40 -122 45 -10 5 -27
9 -37 9 -11 0 -23 5 -26 10 -3 6 -17 10 -31 10 -13 0 -24 5 -24 10 0 6 -11 10
-24 10 -14 0 -28 5 -31 10 -3 6 -17 10 -31 10 -13 0 -34 5 -47 12 -48 24 -57
28 -76 28 -11 0 -23 5 -26 10 -3 6 -17 10 -31 10 -13 0 -32 4 -42 9 -30 15
-149 51 -170 51 -12 0 -23 4 -26 9 -8 12 -66 20 -72 10z"/>
<path d="M3023 513 c-10 -16 -24 -34 -31 -42 -9 -9 -12 -25 -8 -44 3 -16 6
-67 6 -113 0 -46 4 -84 9 -84 6 0 24 30 42 66 37 75 49 165 29 214 -15 37 -25
38 -47 3z"/>
<path d="M1294 487 c-17 -18 -36 -42 -42 -54 -15 -26 -16 -179 -2 -188 6 -3
10 -17 10 -31 0 -13 5 -24 10 -24 6 0 10 -9 10 -20 0 -11 5 -20 10 -20 6 0 10
-9 10 -20 0 -11 5 -20 10 -20 6 0 10 -8 10 -17 0 -14 2 -15 13 -4 10 11 10 14
0 18 -7 3 -13 15 -13 28 0 13 -4 27 -10 30 -5 3 -10 15 -10 26 0 10 -4 19 -10
19 -5 0 -10 14 -10 30 0 17 -4 30 -10 30 -12 0 -13 73 -2 98 5 9 17 31 26 47
10 17 20 38 23 48 3 9 12 17 20 17 14 0 43 23 43 34 0 3 -12 6 -27 6 -18 -1
-39 -12 -59 -33z"/>
<path d="M1610 490 c0 -5 5 -10 10 -10 6 0 10 5 10 10 0 6 -4 10 -10 10 -5 0
-10 -4 -10 -10z"/>
<path d="M1050 450 c0 -5 6 -10 14 -10 8 0 18 5 21 10 3 6 -3 10 -14 10 -12 0
-21 -4 -21 -10z"/>
<path d="M990 430 c0 -5 -13 -10 -30 -10 -16 0 -30 -4 -30 -10 0 -5 -9 -10
-20 -10 -11 0 -28 -4 -38 -9 -22 -11 -59 -26 -97 -39 -141 -49 -253 -92 -295
-111 -8 -4 -36 -14 -62 -22 -27 -7 -48 -17 -48 -21 0 -4 -9 -8 -20 -8 -11 0
-20 -4 -20 -10 0 -5 -7 -10 -15 -10 -19 0 -109 -41 -113 -52 -2 -4 -12 -8 -23
-8 -10 0 -19 -4 -19 -10 0 -5 -9 -10 -20 -10 -11 0 -20 -4 -20 -10 0 -5 -9
-10 -20 -10 -11 0 -20 -4 -20 -8 0 -5 -18 -17 -40 -27 -22 -10 -40 -22 -40
-27 0 -13 57 -10 72 4 26 24 125 78 143 78 8 0 15 5 15 10 0 6 9 10 20 10 11
0 20 5 20 10 0 6 9 10 20 10 11 0 20 5 20 10 0 6 7 10 15 10 8 0 24 5 35 10
11 6 29 15 40 20 11 5 27 10 35 10 8 0 15 5 15 10 0 6 8 10 18 10 10 0 37 9
60 20 22 11 47 20 55 20 7 0 17 4 22 9 6 5 42 20 80 34 39 14 99 36 135 48 36
13 67 27 70 30 3 3 26 12 53 20 26 7 47 17 47 21 0 4 9 8 19 8 11 0 23 5 26
10 4 6 -5 10 -19 10 -14 0 -26 -4 -26 -10z"/>
<path d="M1427 385 c-16 -33 -27 -72 -27 -96 l0 -41 24 29 c14 16 28 41 31 56
8 32 25 36 25 6 0 -11 7 -27 15 -35 13 -14 15 -12 15 20 0 19 4 38 10 41 9 6
-46 75 -60 75 -3 0 -18 -25 -33 -55z"/>
<path d="M2899 407 c-19 -12 -47 -28 -64 -36 -17 -8 -24 -16 -17 -18 6 -3 12
-11 12 -19 0 -8 5 -14 10 -14 6 0 10 4 10 8 0 8 43 32 55 32 3 0 5 -30 5 -66
0 -41 4 -63 10 -59 6 3 10 41 10 84 0 42 5 82 11 88 22 22 -9 22 -42 0z"/>
<path d="M2733 334 c-23 -22 -44 -33 -76 -36 -51 -6 -113 -41 -82 -47 32 -6
45 -28 46 -78 l1 -48 15 50 c8 28 18 61 21 74 9 32 37 50 53 34 9 -9 9 -35 -1
-110 -7 -54 -17 -102 -22 -108 -10 -12 -11 -65 0 -65 9 0 24 28 40 75 17 49
44 220 40 256 l-3 34 -32 -31z"/>
<path d="M1650 317 c0 -2 21 -14 46 -27 25 -13 58 -39 75 -57 27 -32 29 -39
29 -118 0 -69 -3 -85 -15 -85 -8 0 -15 -7 -15 -15 0 -11 12 -15 45 -15 l45 0
0 45 c0 27 -8 57 -20 77 -11 18 -20 43 -20 56 0 22 -15 55 -35 77 -26 29 -135
78 -135 62z"/>
<path d="M2855 290 c3 -5 8 -10 11 -10 2 0 4 5 4 10 0 6 -5 10 -11 10 -5 0 -7
-4 -4 -10z"/>
<path d="M2095 240 c-3 -5 -15 -10 -26 -10 -10 0 -19 -4 -19 -10 0 -5 -5 -10
-11 -10 -29 0 -39 -30 -39 -119 0 -90 0 -91 24 -91 19 0 26 7 31 29 11 53 36
65 126 63 l80 -2 47 -45 c77 -73 100 -58 63 42 -23 62 -49 90 -116 122 -27 13
-58 27 -67 32 -24 12 -85 11 -93 -1z"/>
<path d="M2464 160 c-4 -17 -13 -30 -21 -30 -11 0 -14 -7 -9 -22 3 -13 6 -42
6 -65 0 -36 3 -43 20 -43 19 0 20 7 20 95 0 97 -6 119 -16 65z"/>
<path d="M2817 116 c-4 -10 -5 -21 -2 -24 9 -9 17 6 13 25 -3 17 -4 17 -11 -1z"/>
<path d="M2778 41 c-24 -36 -25 -41 -9 -41 26 0 43 24 39 56 -3 26 -3 26 -30
-15z"/>
<path d="M2522 24 l-23 -24 51 0 c47 0 50 2 50 25 0 21 -5 25 -27 24 -16 0
-38 -11 -51 -25z"/>
<path d="M2990 39 c0 -5 5 -7 10 -4 6 3 10 8 10 11 0 2 -4 4 -10 4 -5 0 -10
-5 -10 -11z"/>
</g>
</svg>
